<svg width="75" height="76" viewBox="0 0 75 76" fill="none" xmlns="http://www.w3.org/2000/svg">
<path d="M37.5 25.4228L28.125 30.8945V41.8379L37.5 47.3097L46.875 41.8379V30.8945L37.5 25.4228ZM42.2406 31.8012L37.4594 34.5903L32.7188 31.8231L37.5 29.0341L42.2406 31.8012ZM31.2187 34.559L35.8563 37.2667V42.7384L31.2187 40.0338V34.559ZM38.95 42.8541V37.3292L43.7813 34.509V40.0338L38.95 42.8541ZM9.375 0.40918L0 5.8809V16.8243L9.375 22.2961L18.75 16.8243V5.8809L9.375 0.40918ZM14.1156 6.78765L9.33438 9.57666L4.59375 6.80953L9.375 4.02052L14.1156 6.78765ZM3.09375 9.54227L7.73125 12.25V17.7217L3.09375 15.0234V9.54227ZM10.825 17.8374V12.3156L15.6563 9.49537V15.0202L10.825 17.8374ZM9.375 53.5631L0 59.0348V69.9782L9.375 75.4499L18.75 69.9782V59.0348L9.375 53.5631ZM14.1156 59.9415L9.33438 62.7305L4.59375 59.9634L9.375 57.1744L14.1156 59.9415ZM3.09375 62.6993L7.73125 65.407V70.8787L3.09375 68.1773V62.6993ZM10.825 70.9944V65.4695L15.6563 62.6492V68.1741L10.825 70.9944ZM65.625 0.40918L56.25 5.8809V16.8243L65.625 22.2961L75 16.8243V5.8809L65.625 0.40918ZM70.3656 6.78765L65.5844 9.57666L60.8437 6.80953L65.625 4.02052L70.3656 6.78765ZM59.3437 9.54539L63.9813 12.2531V17.7248L59.3437 15.0202V9.54539ZM67.075 17.8405V12.3156L71.9063 9.49537V15.0202L67.075 17.8405ZM65.625 53.5631L56.25 59.0348V69.9782L65.625 75.4499L75 69.9782V59.0348L65.625 53.5631ZM70.3656 59.9415L65.5844 62.7305L60.8437 59.9634L65.625 57.1744L70.3656 59.9415ZM59.3437 62.6993L63.9813 65.407V70.8787L59.3437 68.1741V62.6993ZM67.075 70.9944V65.4695L71.9063 62.6492V68.1741L67.075 70.9944ZM28.125 9.78928H46.875V12.916H28.125V9.78928ZM28.125 62.9432H46.875V66.0699H28.125V62.9432ZM10.9375 28.5495V47.3097H7.8125V28.5495H10.9375ZM22.7906 28.0117L16.1625 21.3799L18.3719 19.1694L25 25.798L22.7906 28.0117ZM50 26.3389L56.6281 19.7072L58.8375 21.9177L52.2094 28.5495L50 26.3389ZM25.4 46.9313L18.7719 53.5631L16.5625 51.3525L23.1906 44.7208L25.4 46.9313ZM52.7469 44.5863L59.375 51.218L57.1656 53.4286L50.5375 46.7969L52.7469 44.5863ZM67.1875 28.5495V47.3097H64.0625V28.5495H67.1875Z" fill="#192060"/>
</svg>
