<svg width="92" height="63" viewBox="0 0 92 63" fill="none" xmlns="http://www.w3.org/2000/svg">
<path d="M76.742 21.7329C72.0393 9.24346 60.0567 0.362305 46.0205 0.362305C31.9844 0.362305 20.0018 9.23312 15.2991 21.7226C6.49955 24.0488 0 32.1132 0 41.7181C0 53.1426 9.18973 62.396 20.5254 62.396H71.4746C82.8103 62.396 92 53.1426 92 41.7181C92 32.1339 85.521 24.0695 76.742 21.7329ZM80.4692 50.7854C79.2909 51.9788 77.8892 52.9249 76.3453 53.5692C74.8013 54.2134 73.1458 54.5428 71.4746 54.5384H20.5254C17.1268 54.5384 13.9335 53.2047 11.5308 50.7854C10.3454 49.5969 9.40573 48.1837 8.76598 46.6273C8.12623 45.071 7.79913 43.4025 7.80357 41.7181C7.80357 38.8232 8.73795 36.1041 10.4938 33.8295C12.2132 31.626 14.5939 30.0412 17.2808 29.3114L21.1723 28.2878L22.5996 24.5037C23.4826 22.1465 24.7147 19.9443 26.2652 17.9489C27.7958 15.9711 29.609 14.2325 31.6455 12.7897C35.8656 9.80177 40.8353 8.21991 46.0205 8.21991C51.2058 8.21991 56.1754 9.80177 60.3955 12.7897C62.4388 14.2372 64.246 15.9741 65.7759 17.9489C67.3263 19.9443 68.5585 22.1568 69.4415 24.5037L70.8585 28.2775L74.7397 29.3114C80.3152 30.8105 84.1964 35.9076 84.1964 41.7181C84.1964 45.1403 82.8719 48.366 80.4692 50.7854Z" fill="#192060"/>
</svg>
