<svg width="70" height="71" viewBox="0 0 70 71" fill="none" xmlns="http://www.w3.org/2000/svg">
<path d="M15 15.3215H20V25.327H15V15.3215ZM15 30.3297H20V40.3351H15V30.3297ZM30 15.3215H35V25.327H30V15.3215ZM30 30.3297H35V40.3351H30V30.3297ZM15 45.3378H20V55.3433H15V45.3378ZM30 45.3378H35V55.3433H30V45.3378Z" fill="#192060"/>
<path d="M70 30.3298C70 29.003 69.4732 27.7305 68.5355 26.7923C67.5979 25.8542 66.3261 25.3271 65 25.3271H50V5.3162C50 3.98939 49.4732 2.71693 48.5355 1.77874C47.5979 0.840547 46.3261 0.313477 45 0.313477H5C3.67392 0.313477 2.40215 0.840547 1.46447 1.77874C0.526784 2.71693 0 3.98939 0 5.3162V70.3516H70V30.3298ZM5 5.3162H45V65.3488H5V5.3162ZM50 65.3488V30.3298H65V65.3488H50Z" fill="#192060"/>
</svg>
