<svg width="65" height="76" viewBox="0 0 65 76" fill="none" xmlns="http://www.w3.org/2000/svg">
<path d="M13.5417 13.6636C15.0375 13.6636 16.25 12.4637 16.25 10.9835C16.25 9.50337 15.0375 8.30347 13.5417 8.30347C12.0459 8.30347 10.8334 9.50337 10.8334 10.9835C10.8334 12.4637 12.0459 13.6636 13.5417 13.6636Z" fill="#192060"/>
<path d="M59.5833 21.7034H5.41667C3.98052 21.702 2.6036 21.1368 1.58809 20.1319C0.572578 19.127 0.001434 17.7645 0 16.3433V5.62323C0.001434 4.20209 0.572578 2.83957 1.58809 1.83467C2.6036 0.829776 3.98052 0.264603 5.41667 0.263184H59.5833C61.0195 0.264603 62.3964 0.829776 63.4119 1.83467C64.4274 2.83957 64.9986 4.20209 65 5.62323V16.3433C64.9986 17.7645 64.4274 19.127 63.4119 20.1319C62.3964 21.1368 61.0195 21.702 59.5833 21.7034V21.7034ZM5.41667 5.62323V16.3433H59.5833V5.62323H5.41667Z" fill="#192060"/>
<path d="M13.5417 40.4639C15.0375 40.4639 16.25 39.264 16.25 37.7838C16.25 36.3037 15.0375 35.1038 13.5417 35.1038C12.0459 35.1038 10.8334 36.3037 10.8334 37.7838C10.8334 39.264 12.0459 40.4639 13.5417 40.4639Z" fill="#192060"/>
<path d="M59.5833 48.5037H5.41667C3.98052 48.5022 2.6036 47.9371 1.58809 46.9322C0.572578 45.9273 0.001434 44.5648 0 43.1436V32.4235C0.001434 31.0024 0.572578 29.6399 1.58809 28.635C2.6036 27.6301 3.98052 27.0649 5.41667 27.0635H59.5833C61.0195 27.0649 62.3964 27.6301 63.4119 28.635C64.4274 29.6399 64.9986 31.0024 65 32.4235V43.1436C64.9986 44.5648 64.4274 45.9273 63.4119 46.9322C62.3964 47.9371 61.0195 48.5022 59.5833 48.5037ZM5.41667 32.4235V43.1436H59.5833V32.4235H5.41667Z" fill="#192060"/>
<path d="M13.5417 67.2642C15.0375 67.2642 16.25 66.0643 16.25 64.5841C16.25 63.104 15.0375 61.9041 13.5417 61.9041C12.0459 61.9041 10.8334 63.104 10.8334 64.5841C10.8334 66.0643 12.0459 67.2642 13.5417 67.2642Z" fill="#192060"/>
<path d="M59.5833 75.3042H5.41667C3.98052 75.3028 2.6036 74.7376 1.58809 73.7327C0.572578 72.7278 0.001434 71.3652 0 69.944V59.2237C0.001434 57.8025 0.572578 56.44 1.58809 55.435C2.6036 54.4301 3.98052 53.8649 5.41667 53.8635H59.5833C61.0195 53.8649 62.3964 54.4301 63.4119 55.435C64.4274 56.44 64.9986 57.8025 65 59.2237V69.944C64.9986 71.3652 64.4274 72.7278 63.4119 73.7327C62.3964 74.7376 61.0195 75.3028 59.5833 75.3042ZM5.41667 59.2237V69.944H59.5833V59.2237H5.41667Z" fill="#192060"/>
</svg>
